<svg width="446" height="123" viewBox="0 0 446 123" fill="none" xmlns="http://www.w3.org/2000/svg">
<path d="M113.388 0L75.8579 86.0811H75.2318L71.2522 50.4739L51.6147 94.4726L53.0007 104.774H92.7078L139.469 0H113.388Z" fill="#F55800"/>
<path d="M71.2477 50.4739H71.2522L93.7774 0.00445557H67.6959L30.1658 86.0855H29.5397L25.4531 50.4784H0L7.3086 104.778H47.0157L51.6148 94.4726L45.6921 50.4739H71.2477Z" fill="#FFA450"/>
<path d="M71.252 50.4739H45.6919L51.6145 94.4726L71.165 50.6655L71.252 50.4739Z" fill="#C63D22"/>
<path d="M173.615 50.4984L147.719 104.798H131.949L128.712 71.3814L113.778 104.798H98.7398L91.4312 50.4984H105.634L109.498 86.1078H110.124L125.579 50.4984H139.363L142.6 86.1078H143.226L158.996 50.4984H173.615Z" fill="white"/>
<path d="M180.61 28.361H195.229L190.218 56.4523C194.291 51.8577 199.928 49.4556 206.508 49.4556C216.847 49.4556 223.946 55.4073 223.946 65.7463C223.946 68.8791 223.32 72.6382 222.694 75.9805L217.473 104.803H203.166L208.177 76.2947C208.491 74.4163 209.013 72.2215 209.013 69.8195C209.013 65.2248 207.237 61.1516 200.659 61.1516C193.246 61.1516 188.547 66.2677 187.292 73.369L181.757 104.8H167.138L180.61 28.361Z" fill="white"/>
<path d="M265.559 104.8L266.494 99.602C263.582 103.593 257.624 105.846 250.732 105.846C235.486 105.846 225.983 94.8804 225.983 79.5301C225.983 62.6133 237.679 49.4556 255.326 49.4556C265.351 49.4556 270.782 53.7361 273.6 58.6449L275.053 50.5007H288.012L280.494 93.1067L278.578 104.803H265.559V104.8ZM270.779 75.8736C270.779 67.3105 265.87 60.8352 256.474 60.8352C245.092 60.8352 240.079 70.2339 240.079 79.3184C240.079 88.5076 245.299 94.4592 254.072 94.4592C265.037 94.4615 270.779 85.1675 270.779 75.8736Z" fill="white"/>
<path d="M315.054 34.834L312.236 50.4985H326.229L324.453 61.1494H310.46L305.76 87.9863C305.03 92.1642 306.075 94.7734 310.565 94.7734C312.652 94.7734 316.157 94.0693 318.559 93.2337L316.761 103.553C314.778 104.493 311.817 105.841 304.925 105.841C291.35 105.841 289.784 96.9638 291.662 86.2103L296.048 61.1494H288.425L290.439 50.4985H298.031L303.147 34.834H315.054Z" fill="white"/>
<path d="M388.109 50.4984L378.501 104.798H364.196L371.814 61.2675L365.377 61.1227L367.329 50.4962H388.109V50.4984ZM381.32 27.3159C385.705 27.3159 389.257 30.8677 389.257 35.2529C389.257 39.638 385.707 43.1898 381.32 43.1898C376.935 43.1898 373.383 39.6403 373.383 35.2529C373.385 30.8677 376.935 27.3159 381.32 27.3159Z" fill="white"/>
<path d="M406.488 76.7091L392.285 50.4984H407.845L416.094 67.2057L428.625 50.4984H445.647L422.883 77.7542L436.876 104.8H421.631L413.068 87.1529L399.7 104.8H382.574L406.488 76.7091Z" fill="white"/>
<path d="M324.085 111.588C328.263 111.066 329.62 108.664 330.246 105.322L337.869 61.1494H329.515L330.977 50.4984H339.852L340.688 45.6944C342.254 37.236 345.909 27.3159 359.38 27.3159C364.136 27.3159 367.999 28.4211 367.999 28.4211L366.237 38.5618C364.385 38.3278 363.556 38.1763 361.78 38.1763C356.455 38.1763 355.829 41.0998 355.098 45.0682L354.157 50.4984H364.078L362.197 61.1494H352.277L344.34 105.739C342.357 117.12 338.333 123.564 322.098 122.649L324.085 111.588Z" fill="white"/>
</svg>
